<?xml version="1.0" encoding="UTF-8" standalone="no"?>
<svg height="331.9881" viewBox="0 0 1024 331.9881" width="1024" xmlns="http://www.w3.org/2000/svg" xmlns:xlink="http://www.w3.org/1999/xlink" style="--cs-zoom: 2;"><radialGradient id="a" cx="3496.9575" cy="388.73517" gradientTransform="scale(.78082978 1.2806889)" gradientUnits="userSpaceOnUse" r="722.62866"><stop offset="0" stop-color="#f9be03"/><stop offset="1" stop-color="#cc7c19"/></radialGradient><g fill-rule="evenodd" transform="scale(.3318222)"><path d="m3085.99 0h-290l-290 500 290 500h289.747l-289.747-499.75z"/><path d="m2186 0h290l320 500.25-320 500.25h-290l320-500.25z" fill="url(#a)"/><path d="m2085.947 1000h-577.073v-1000h577.073v173.737h-364.607v219.563h339.254v173.73h-339.254v257.865h364.607zm-1294.671 0v-1000h212.04v824.895h405.61v175.105z"/><path d="m589.947 558.824c-67.268 57.007-162.91 85.5-286.938 85.5h-90.97v355.676h-212.039v-529.662l290 .36c177.563-2.07 186.842-110.82 186.842-148.498 0-34.98 0-146.755-157.842-148.5l-319 .003v-173.703h319.424c121.293 0 213.516 26.107 276.676 78.32 63.153 52.214 94.734 130.072 94.734 233.582 0 107.625-33.632 189.928-100.887 246.922z"/><path d="m0 110h212.2v429h-212.2z"/></g><style xmlns="" id="8b3690d5-85db-45fc-b4d3-6e1b482dc8f3">#sej-container{border-top: 1px solid #ccc;border-bottom: 1px solid #ccc;}</style></svg>